<svg width="22" height="20" viewBox="0 0 22 20" fill="none" xmlns="http://www.w3.org/2000/svg">
<path d="M18.3058 5.21415C18.1748 4.97437 18.014 4.75221 17.8271 4.55294C17.4008 4.09848 16.8599 3.85435 16.2323 3.68236C15.6289 3.51697 14.8603 3.39746 13.9199 3.25124L11.423 2.86297C11.0137 2.79932 10.6303 3.07953 10.5666 3.48882C10.503 3.89812 10.7832 4.28151 11.1925 4.34516L13.6452 4.72656C14.6406 4.88135 15.3244 4.98882 15.8359 5.12901C16.0021 5.17457 16.1397 5.22102 16.2552 5.26902L4.08033 14.0839C3.74482 14.3268 3.66976 14.7957 3.91268 15.1312C4.15559 15.4667 4.6245 15.5418 4.96 15.2989L17.1348 6.484C17.1444 6.60868 17.1456 6.75389 17.137 6.92604C17.1105 7.45575 16.9991 8.13889 16.8355 9.13288L16.4322 11.5821C16.3649 11.9908 16.6417 12.3767 17.0504 12.444C17.4591 12.5112 17.845 12.2345 17.9123 11.8258L18.3228 9.33244C18.4775 8.39337 18.6038 7.62588 18.6351 7.00094C18.6676 6.35108 18.6045 5.76102 18.3058 5.21415Z" fill="white"/>
</svg>
